<svg width="32" height="32" viewBox="0 0 32 32" fill="none" xmlns="http://www.w3.org/2000/svg">
<path d="M22.75 4.74999C23.22 4.27999 23.98 4.27999 24.445 4.74999L28.445 8.74999C28.915 9.21999 28.915 9.97999 28.445 10.445L24.445 14.445C23.975 14.915 23.215 14.915 22.75 14.445C22.285 13.975 22.28 13.215 22.75 12.75L24.7 10.8H20.525C19.995 10.8 19.485 11.01 19.11 11.385L14.495 16L19.11 20.615C19.485 20.99 19.995 21.2 20.525 21.2H24.7L22.75 19.25C22.28 18.78 22.28 18.02 22.75 17.555C23.22 17.09 23.98 17.085 24.445 17.555L28.445 21.555C28.915 22.025 28.915 22.785 28.445 23.25L24.445 27.25C23.975 27.72 23.215 27.72 22.75 27.25C22.285 26.78 22.28 26.02 22.75 25.555L24.7 23.605H20.525C19.36 23.605 18.24 23.14 17.415 22.315L12.305 17.2H4.40001C3.73501 17.2 3.20001 16.665 3.20001 16C3.20001 15.335 3.73501 14.8 4.40001 14.8H12.305L17.415 9.68999C18.24 8.86499 19.36 8.39999 20.525 8.39999H24.7L22.75 6.44999C22.28 5.97999 22.28 5.21999 22.75 4.75499V4.74999Z" fill="#00B2E4"/>
</svg>
