<svg width="20" height="20" viewBox="0 0 20 20" fill="none" xmlns="http://www.w3.org/2000/svg">
<path d="M13.5 4.5C13.5 4.23478 13.6054 3.98043 13.7929 3.79289C13.9804 3.60536 14.2348 3.5 14.5 3.5C14.7652 3.5 15.0196 3.60536 15.2071 3.79289C15.3946 3.98043 15.5 4.23478 15.5 4.5C15.5 4.76522 15.3946 5.01957 15.2071 5.20711C15.0196 5.39464 14.7652 5.5 14.5 5.5C14.2348 5.5 13.9804 5.39464 13.7929 5.20711C13.6054 5.01957 13.5 4.76522 13.5 4.5ZM12.5656 6.08125C12.7781 6.34063 13.0406 6.55625 13.3375 6.7125L12.1875 13.0188C11.8281 13.0625 11.4937 13.1844 11.1969 13.3656L6.79063 9.50625C6.925 9.19688 7 8.85938 7 8.5C7 8.4375 6.99688 8.37187 6.99375 8.30937L12.5656 6.08125ZM14.8125 6.98125C16.0469 6.82812 17 5.775 17 4.5C17 3.11875 15.8813 2 14.5 2C13.1187 2 12 3.11875 12 4.5C12 4.5625 12.0031 4.62812 12.0063 4.69062L6.43437 6.91875C5.97812 6.35625 5.28125 6 4.5 6C3.11875 6 2 7.11875 2 8.5C2 9.88125 3.11875 11 4.5 11C4.97813 11 5.42188 10.8656 5.8 10.6344L10.2094 14.4937C10.075 14.8031 10 15.1406 10 15.5C10 16.8813 11.1187 18 12.5 18C13.8813 18 15 16.8813 15 15.5C15 14.5406 14.4594 13.7063 13.6656 13.2875L14.8125 6.98125ZM11.5 15.5C11.5 15.2348 11.6054 14.9804 11.7929 14.7929C11.9804 14.6054 12.2348 14.5 12.5 14.5C12.7652 14.5 13.0196 14.6054 13.2071 14.7929C13.3946 14.9804 13.5 15.2348 13.5 15.5C13.5 15.7652 13.3946 16.0196 13.2071 16.2071C13.0196 16.3946 12.7652 16.5 12.5 16.5C12.2348 16.5 11.9804 16.3946 11.7929 16.2071C11.6054 16.0196 11.5 15.7652 11.5 15.5ZM4.5 7.5C4.76522 7.5 5.01957 7.60536 5.20711 7.79289C5.39464 7.98043 5.5 8.23478 5.5 8.5C5.5 8.76522 5.39464 9.01957 5.20711 9.20711C5.01957 9.39464 4.76522 9.5 4.5 9.5C4.23478 9.5 3.98043 9.39464 3.79289 9.20711C3.60536 9.01957 3.5 8.76522 3.5 8.5C3.5 8.23478 3.60536 7.98043 3.79289 7.79289C3.98043 7.60536 4.23478 7.5 4.5 7.5Z" fill="#62636C"/>
</svg>
