<svg width="20" height="20" viewBox="0 0 20 20" fill="none" xmlns="http://www.w3.org/2000/svg">
<path d="M3.5 5.33437V3.75C3.5 3.33438 3.16562 3 2.75 3C2.33437 3 2 3.33438 2 3.75V7.25C2 7.66563 2.33437 8 2.75 8H6.25C6.66563 8 7 7.66563 7 7.25C7 6.83437 6.66563 6.5 6.25 6.5H4.52187C5.67812 4.69375 7.7 3.5 10 3.5C13.5906 3.5 16.5 6.40938 16.5 10C16.5 13.5906 13.5906 16.5 10 16.5C8.67188 16.5 7.44063 16.1031 6.41563 15.4219C6.07188 15.1938 5.60625 15.2875 5.375 15.6313C5.14375 15.975 5.24062 16.4406 5.58437 16.6719C6.85 17.5125 8.36875 18 10 18C14.4187 18 18 14.4187 18 10C18 5.58125 14.4187 2 10 2C7.32188 2 4.95 3.31562 3.5 5.33437ZM10 6C9.58437 6 9.25 6.33437 9.25 6.75V10C9.25 10.2 9.32812 10.3906 9.46875 10.5312L11.7188 12.7812C12.0125 13.075 12.4875 13.075 12.7781 12.7812C13.0687 12.4875 13.0719 12.0125 12.7781 11.7219L10.7469 9.69063V6.75C10.7469 6.33437 10.4125 6 9.99687 6H10Z" fill="#62636C"/>
</svg>
