<svg width="20" height="20" viewBox="0 0 20 20" fill="none" xmlns="http://www.w3.org/2000/svg">
<path d="M10.4844 2.17812C10.2031 1.94062 9.79375 1.94062 9.5125 2.17812L1.2625 9.17812C0.946874 9.44688 0.909374 9.91875 1.175 10.2344C1.44062 10.55 1.91562 10.5875 2.23125 10.3219L3 9.67188V15.5C3 16.8813 4.11875 18 5.5 18H14.5C15.8812 18 17 16.8813 17 15.5V9.67188L17.7656 10.3219C18.0812 10.5906 18.5562 10.55 18.8219 10.2344C19.0875 9.91875 19.05 9.44375 18.7344 9.17812L10.4844 2.17812ZM4.5 15.5V8.4L10 3.73438L15.5 8.4V15.5C15.5 16.0531 15.0531 16.5 14.5 16.5H13V11.75C13 11.0594 12.4406 10.5 11.75 10.5H8.25C7.55937 10.5 7 11.0594 7 11.75V16.5H5.5C4.94687 16.5 4.5 16.0531 4.5 15.5ZM8.5 16.5V12H11.5V16.5H8.5Z" fill="#62636C"/>
</svg>
