<svg width="33" height="32" viewBox="0 0 33 32" fill="none" xmlns="http://www.w3.org/2000/svg">
    <path d="M6.375 11.6938C8.05 7.75625 11.9563 5 16.5 5C18.9813 5 21.3625 5.9875 23.1187 7.74375L26.3813 11H23C22.1688 11 21.5 11.6687 21.5 12.5C21.5 13.3313 22.1688 14 23 14H30C30.8312 14 31.5 13.3313 31.5 12.5V5.5C31.5 4.66875 30.8312 4 30 4C29.1688 4 28.5 4.66875 28.5 5.5V8.88125L25.2437 5.61875C22.925 3.3 19.7812 2 16.5 2C10.7125 2 5.74375 5.5125 3.6125 10.5188C3.2875 11.2812 3.64375 12.1625 4.40625 12.4875C5.16875 12.8125 6.05 12.4563 6.375 11.6938ZM29.375 21.5063C29.7 20.7437 29.35 19.8625 28.5875 19.5375C27.825 19.2125 26.9438 19.5625 26.6187 20.325C24.9375 24.2563 21.0375 27 16.5 27C14.0188 27 11.6375 26.0125 9.88125 24.2563L6.61875 21H10C10.8313 21 11.5 20.3312 11.5 19.5C11.5 18.6688 10.8313 18 10 18H3C2.16875 18 1.5 18.6688 1.5 19.5V26.5C1.5 27.3312 2.16875 28 3 28C3.83125 28 4.5 27.3312 4.5 26.5V23.1187L7.75625 26.375C10.075 28.7 13.2188 30 16.5 30C22.2812 30 27.2375 26.5 29.375 21.5063Z"
          fill="#00B2E4"/>
</svg>
