<svg width="20" height="20" viewBox="0 0 20 20" fill="none" xmlns="http://www.w3.org/2000/svg">
<path d="M16.75 16C16.75 16.1989 16.671 16.3897 16.5303 16.5303C16.3897 16.671 16.1989 16.75 16 16.75C15.8011 16.75 15.6103 16.671 15.4697 16.5303C15.329 16.3897 15.25 16.1989 15.25 16C15.25 15.8011 15.329 15.6103 15.4697 15.4697C15.6103 15.329 15.8011 15.25 16 15.25C16.1989 15.25 16.3897 15.329 16.5303 15.4697C16.671 15.6103 16.75 15.8011 16.75 16ZM14 16C14 16.5304 14.2107 17.0391 14.5858 17.4142C14.9609 17.7893 15.4696 18 16 18C16.5304 18 17.0391 17.7893 17.4142 17.4142C17.7893 17.0391 18 16.5304 18 16C18 15.4696 17.7893 14.9609 17.4142 14.5858C17.0391 14.2107 16.5304 14 16 14C15.4696 14 14.9609 14.2107 14.5858 14.5858C14.2107 14.9609 14 15.4696 14 16ZM2 13C2 15.0719 3.67812 16.75 5.75 16.75H10V17.4406C10 17.75 10.25 18 10.5594 18C10.6844 18 10.8031 17.9594 10.9031 17.8813L12.8031 16.4031C12.9281 16.3063 13 16.1562 13 16C13 15.8438 12.9281 15.6937 12.8031 15.5969L10.9031 14.1188C10.8062 14.0438 10.6844 14 10.5594 14C10.25 14 10 14.25 10 14.5594V15.25H5.75C4.50625 15.25 3.5 14.2438 3.5 13C3.5 11.7562 4.50625 10.75 5.75 10.75H14.25C16.3219 10.75 18 9.07187 18 7C18 5.14062 16.6469 3.6 14.875 3.30313C14.5906 2.54375 13.8594 2 13 2C11.8969 2 11 2.89688 11 4C11 5.10312 11.8969 6 13 6C13.8094 6 14.5094 5.51875 14.8219 4.825C15.7875 5.07812 16.5 5.95625 16.5 7C16.5 8.24375 15.4937 9.25 14.25 9.25H5.75C3.67812 9.25 2 10.9281 2 13ZM5.85313 4.75H7V5.44063C7 5.75 7.25 6 7.55937 6C7.68437 6 7.80312 5.95938 7.90312 5.88125L9.80312 4.40312C9.92812 4.30625 10 4.15625 10 4C10 3.84375 9.92812 3.69375 9.80312 3.59688L7.90312 2.11875C7.80625 2.04375 7.68437 2 7.55937 2C7.25 2 7 2.25 7 2.55937V3.25H5.85313C5.55625 2.51562 4.8375 2 4 2C2.89688 2 2 2.89688 2 4C2 5.10312 2.89688 6 4 6C4.84063 6 5.55938 5.48438 5.85313 4.75ZM4.75 4C4.75 4.19891 4.67098 4.38968 4.53033 4.53033C4.38968 4.67098 4.19891 4.75 4 4.75C3.80109 4.75 3.61032 4.67098 3.46967 4.53033C3.32902 4.38968 3.25 4.19891 3.25 4C3.25 3.80109 3.32902 3.61032 3.46967 3.46967C3.61032 3.32902 3.80109 3.25 4 3.25C4.19891 3.25 4.38968 3.32902 4.53033 3.46967C4.67098 3.61032 4.75 3.80109 4.75 4ZM13 3.25C13.1989 3.25 13.3897 3.32902 13.5303 3.46967C13.671 3.61032 13.75 3.80109 13.75 4C13.75 4.19891 13.671 4.38968 13.5303 4.53033C13.3897 4.67098 13.1989 4.75 13 4.75C12.8011 4.75 12.6103 4.67098 12.4697 4.53033C12.329 4.38968 12.25 4.19891 12.25 4C12.25 3.80109 12.329 3.61032 12.4697 3.46967C12.6103 3.32902 12.8011 3.25 13 3.25Z" fill="#1E1F24"/>
</svg>
